{
  "accessors": [
    {
      "bufferView": 2,
      "componentType": 5126,
      "count": 264,
      "max": [
        0.12368699908256531,
        0.016453299671411514,
        0.030190799385309219
      ],
      "min": [
        0.070254996418952942,
        -0.018816899508237839,
        -0.11832299828529358
      ],
      "type": "VEC3"
    },
    {
      "bufferView": 2,
      "byteOffset": 3168,
      "componentType": 5126,
      "count": 264,
      "max": [
        0.97904777526855469,
        0.64124530553817749,
        0.62237089872360229
      ],
      "min": [
        -0.94963467121124268,
        -0.99323338270187378,
        -0.64200437068939209
      ],
      "type": "VEC3"
    },
    {
      "bufferView": 3,
      "componentType": 5126,
      "count": 264,
      "max": [
        0.6658480167388916,
        0.91784399747848511,
        0.46912199258804321,
        1
      ],
      "min": [
        -0.97900199890136719,
        -0.99334502220153809,
        -0.62095201015472412,
        1
      ],
      "type": "VEC4"
    },
    {
      "bufferView": 1,
      "componentType": 5126,
      "count": 264,
      "max": [
        0.74708598852157593,
        0.97172200679779053
      ],
      "min": [
        0.4560210108757019,
        0.39860799908638
      ],
      "type": "VEC2"
    },
    {
      "bufferView": 0,
      "componentType": 5125,
      "count": 756,
      "max": [
        263
      ],
      "min": [
        0
      ],
      "type": "SCALAR"
    },
    {
      "bufferView": 2,
      "byteOffset": 6336,
      "componentType": 5126,
      "count": 264,
      "max": [
        -0.01112349983304739,
        0.067679800093173981,
        0.029317999258637428
      ],
      "min": [
        -0.081529103219509125,
        0.025412200018763542,
        -0.12871900200843811
      ],
      "type": "VEC3"
    },
    {
      "bufferView": 2,
      "byteOffset": 9504,
      "componentType": 5126,
      "count": 264,
      "max": [
        0.31367912888526917,
        0.98586177825927734,
        0.3918488621711731
      ],
      "min": [
        -0.9754059910774231,
        -0.93747901916503906,
        -0.76982682943344116
      ],
      "type": "VEC3"
    },
    {
      "bufferView": 3,
      "byteOffset": 4224,
      "componentType": 5126,
      "count": 264,
      "max": [
        0.95476198196411133,
        0.98596799373626709,
        0.74181300401687622,
        1
      ],
      "min": [
        -0.9754369854927063,
        -0.34804099798202515,
        -0.75306999683380127,
        1
      ],
      "type": "VEC4"
    },
    {
      "bufferView": 1,
      "byteOffset": 2112,
      "componentType": 5126,
      "count": 264,
      "max": [
        0.32208600640296936,
        0.97143697738647461
      ],
      "min": [
        0.037246599793434143,
        0.39915299415588379
      ],
      "type": "VEC2"
    },
    {
      "bufferView": 0,
      "byteOffset": 3024,
      "componentType": 5125,
      "count": 756,
      "max": [
        263
      ],
      "min": [
        0
      ],
      "type": "SCALAR"
    },
    {
      "bufferView": 2,
      "byteOffset": 12672,
      "componentType": 5126,
      "count": 365,
      "max": [
        0.032403800636529922,
        0.078131698071956635,
        0.068293899297714233
      ],
      "min": [
        -0.015638900920748711,
        0.033879600465297699,
        0.045286800712347031
      ],
      "type": "VEC3"
    },
    {
      "bufferView": 2,
      "byteOffset": 17052,
      "componentType": 5126,
      "count": 365,
      "max": [
        0.98986274003982544,
        0.90303987264633179,
        0.99938154220581055
      ],
      "min": [
        -0.98986262083053589,
        -0.90303987264633179,
        -0.99938154220581055
      ],
      "type": "VEC3"
    },
    {
      "bufferView": 3,
      "byteOffset": 8448,
      "componentType": 5126,
      "count": 365,
      "max": [
        0.98986297845840454,
        0.90309798717498779,
        0.449847012758255,
        1
      ],
      "min": [
        -0.98987501859664917,
        -0.90306597948074341,
        -0.44989499449729919,
        1
      ],
      "type": "VEC4"
    },
    {
      "bufferView": 1,
      "byteOffset": 4224,
      "componentType": 5126,
      "count": 365,
      "max": [
        0.98024702072143555,
        0.3645859956741333
      ],
      "min": [
        0.011442500166594982,
        0.021418500691652298
      ],
      "type": "VEC2"
    },
    {
      "bufferView": 0,
      "byteOffset": 6048,
      "componentType": 5125,
      "count": 1680,
      "max": [
        364
      ],
      "min": [
        0
      ],
      "type": "SCALAR"
    },
    {
      "bufferView": 2,
      "byteOffset": 21432,
      "componentType": 5126,
      "count": 439,
      "max": [
        1,
        1,
        1
      ],
      "min": [
        -1,
        -1,
        -1
      ],
      "type": "VEC3"
    },
    {
      "bufferView": 2,
      "byteOffset": 26700,
      "componentType": 5126,
      "count": 439,
      "max": [
        1,
        1,
        1
      ],
      "min": [
        -1,
        -1,
        -1
      ],
      "type": "VEC3"
    },
    {
      "bufferView": 3,
      "byteOffset": 14288,
      "componentType": 5126,
      "count": 439,
      "max": [
        1,
        0.078692100942134857,
        1,
        1
      ],
      "min": [
        -1,
        -0.078692100942134857,
        -1,
        1
      ],
      "type": "VEC4"
    },
    {
      "bufferView": 1,
      "byteOffset": 7144,
      "componentType": 5126,
      "count": 439,
      "max": [
        1,
        1
      ],
      "min": [
        0,
        0
      ],
      "type": "VEC2"
    },
    {
      "bufferView": 0,
      "byteOffset": 12768,
      "componentType": 5125,
      "count": 2280,
      "max": [
        438
      ],
      "min": [
        0
      ],
      "type": "SCALAR"
    },
    {
      "bufferView": 2,
      "byteOffset": 31968,
      "componentType": 5126,
      "count": 5993,
      "max": [
        0.078761599957942963,
        0.071809597313404083,
        0.067331701517105103
      ],
      "min": [
        -0.073756203055381775,
        -0.0024208500981330872,
        -0.064771100878715515
      ],
      "type": "VEC3"
    },
    {
      "bufferView": 2,
      "byteOffset": 103884,
      "componentType": 5126,
      "count": 5993,
      "max": [
        0.99961763620376587,
        0.99912774562835693,
        0.99997550249099731
      ],
      "min": [
        -0.99988400936126709,
        -0.99968200922012329,
        -0.99997550249099731
      ],
      "type": "VEC3"
    },
    {
      "bufferView": 3,
      "byteOffset": 21312,
      "componentType": 5126,
      "count": 5993,
      "max": [
        0.99974101781845093,
        0.99790900945663452,
        0.99998897314071655,
        1
      ],
      "min": [
        -0.99956899881362915,
        -0.99973100423812866,
        -0.99942398071289062,
        -1
      ],
      "type": "VEC4"
    },
    {
      "bufferView": 1,
      "byteOffset": 10656,
      "componentType": 5126,
      "count": 5993,
      "max": [
        0.99753499031066895,
        0.99800002574920654
      ],
      "min": [
        0.0020000000949949026,
        0.0020000000949949026
      ],
      "type": "VEC2"
    },
    {
      "bufferView": 0,
      "byteOffset": 21888,
      "componentType": 5125,
      "count": 17886,
      "max": [
        5992
      ],
      "min": [
        0
      ],
      "type": "SCALAR"
    }
  ],
  "asset": {
    "extras": {
      "author": "gigok (https://sketchfab.com/gigok)",
      "license": "CC-BY-4.0 (http://creativecommons.org/licenses/by/4.0/)",
      "source": "https://sketchfab.com/models/3618846757a14c3ab0412274240d67ed",
      "title": "Spitfire Texturing Contest"
    },
    "generator": "Sketchfab-3.19.6",
    "version": "2.0"
  },
  "bufferViews": [
    {
      "buffer": 0,
      "byteLength": 93432,
      "byteOffset": 0,
      "name": "floatBufferViews",
      "target": 34963
    },
    {
      "buffer": 0,
      "byteLength": 58600,
      "byteOffset": 93432,
      "byteStride": 8,
      "name": "floatBufferViews",
      "target": 34962
    },
    {
      "buffer": 0,
      "byteLength": 175800,
      "byteOffset": 152032,
      "byteStride": 12,
      "name": "floatBufferViews",
      "target": 34962
    },
    {
      "buffer": 0,
      "byteLength": 117200,
      "byteOffset": 327832,
      "byteStride": 16,
      "name": "floatBufferViews",
      "target": 34962
    }
  ],
  "buffers": [
    {
      "byteLength": 445032,
      "uri": "scene.bin"
    }
  ],
  "images": [
    {
      "uri": "textures/Globe_emissive.jpeg"
    },
    {
      "uri": "textures/Globe_normal.jpeg"
    },
    {
      "uri": "textures/Globe_metallicRoughness.png"
    },
    {
      "uri": "textures/Globe_baseColor.jpeg"
    },
    {
      "uri": "textures/Plane_MAT_baseColor.png"
    },
    {
      "uri": "textures/Plane_MAT_metallicRoughness.png"
    },
    {
      "uri": "textures/Plane_MAT_normal.jpeg"
    },
    {
      "uri": "textures/material_baseColor.png"
    },
    {
      "uri": "textures/material_emissive.jpeg"
    },
    {
      "uri": "textures/material_normal.jpeg"
    },
    {
      "uri": "textures/material_metallicRoughness.png"
    }
  ],
  "materials": [
    {
      "alphaMode": "BLEND",
      "doubleSided": true,
      "emissiveFactor": [
        0,
        0,
        0
      ],
      "name": "Plane_MAT",
      "normalTexture": {
        "index": 6,
        "scale": 1,
        "texCoord": 0
      },
      "occlusionTexture": {
        "index": 5,
        "strength": 1,
        "texCoord": 0
      },
      "pbrMetallicRoughness": {
        "baseColorFactor": [
          1,
          1,
          1,
          1
        ],
        "baseColorTexture": {
          "index": 4,
          "texCoord": 0
        },
        "metallicFactor": 1,
        "metallicRoughnessTexture": {
          "index": 5,
          "texCoord": 0
        },
        "roughnessFactor": 1
      }
    },
    {
      "doubleSided": true,
      "emissiveFactor": [
        1,
        1,
        1
      ],
      "emissiveTexture": {
        "index": 0,
        "texCoord": 0
      },
      "name": "Globe",
      "normalTexture": {
        "index": 1,
        "scale": 1,
        "texCoord": 0
      },
      "pbrMetallicRoughness": {
        "baseColorFactor": [
          1,
          1,
          1,
          1
        ],
        "baseColorTexture": {
          "index": 3,
          "texCoord": 0
        },
        "metallicFactor": 1,
        "metallicRoughnessTexture": {
          "index": 2,
          "texCoord": 0
        },
        "roughnessFactor": 1
      }
    },
    {
      "alphaMode": "BLEND",
      "doubleSided": true,
      "emissiveFactor": [
        1,
        1,
        1
      ],
      "emissiveTexture": {
        "index": 8,
        "texCoord": 0
      },
      "name": "material",
      "normalTexture": {
        "index": 9,
        "scale": 1,
        "texCoord": 0
      },
      "pbrMetallicRoughness": {
        "baseColorFactor": [
          1,
          1,
          1,
          1
        ],
        "baseColorTexture": {
          "index": 7,
          "texCoord": 0
        },
        "metallicFactor": 1,
        "metallicRoughnessTexture": {
          "index": 10,
          "texCoord": 0
        },
        "roughnessFactor": 1
      }
    }
  ],
  "meshes": [
    {
      "name": "defaultMaterial",
      "primitives": [
        {
          "attributes": {
            "NORMAL": 1,
            "POSITION": 0,
            "TANGENT": 2,
            "TEXCOORD_0": 3
          },
          "indices": 4,
          "material": 2,
          "mode": 4
        }
      ]
    },
    {
      "name": "defaultMaterial",
      "primitives": [
        {
          "attributes": {
            "NORMAL": 6,
            "POSITION": 5,
            "TANGENT": 7,
            "TEXCOORD_0": 8
          },
          "indices": 9,
          "material": 2,
          "mode": 4
        }
      ]
    },
    {
      "name": "defaultMaterial",
      "primitives": [
        {
          "attributes": {
            "NORMAL": 11,
            "POSITION": 10,
            "TANGENT": 12,
            "TEXCOORD_0": 13
          },
          "indices": 14,
          "material": 2,
          "mode": 4
        }
      ]
    },
    {
      "name": "defaultMaterial",
      "primitives": [
        {
          "attributes": {
            "NORMAL": 16,
            "POSITION": 15,
            "TANGENT": 17,
            "TEXCOORD_0": 18
          },
          "indices": 19,
          "material": 1,
          "mode": 4
        }
      ]
    },
    {
      "name": "defaultMaterial",
      "primitives": [
        {
          "attributes": {
            "NORMAL": 21,
            "POSITION": 20,
            "TANGENT": 22,
            "TEXCOORD_0": 23
          },
          "indices": 24,
          "material": 0,
          "mode": 4
        }
      ]
    }
  ],
  "nodes": [
    {
      "children": [
        1
      ],
      "name": "RootNode (gltf orientation matrix)",
      "rotation": [
        -0.70710678118654746,
        -0,
        -0,
        0.70710678118654757
      ]
    },
    {
      "children": [
        2
      ],
      "name": "RootNode (model correction matrix)"
    },
    {
      "children": [
        3,
        5,
        7,
        9,
        11
      ],
      "matrix": [
        1,
        0,
        0,
        0,
        0,
        -4.3711390063094768e-08,
        0.999999999999999,
        0,
        0,
        -0.999999999999999,
        -4.3711390063094768e-08,
        0,
        0,
        0,
        0,
        1
      ],
      "name": "Collada visual scene group"
    },
    {
      "children": [
        4
      ],
      "name": "lStream"
    },
    {
      "mesh": 0,
      "name": "defaultMaterial"
    },
    {
      "children": [
        6
      ],
      "name": "rStream"
    },
    {
      "mesh": 1,
      "name": "defaultMaterial"
    },
    {
      "children": [
        8
      ],
      "name": "Fan"
    },
    {
      "mesh": 2,
      "name": "defaultMaterial"
    },
    {
      "children": [
        10
      ],
      "name": "Environment"
    },
    {
      "mesh": 3,
      "name": "defaultMaterial"
    },
    {
      "children": [
        12
      ],
      "name": "PlaneFLying_GEO"
    },
    {
      "mesh": 4,
      "name": "defaultMaterial"
    }
  ],
  "samplers": [
    {
      "magFilter": 9729,
      "minFilter": 9987,
      "wrapS": 10497,
      "wrapT": 10497
    }
  ],
  "scene": 0,
  "scenes": [
    {
      "name": "OSG_Scene",
      "nodes": [
        0
      ]
    }
  ],
  "textures": [
    {
      "sampler": 0,
      "source": 0
    },
    {
      "sampler": 0,
      "source": 1
    },
    {
      "sampler": 0,
      "source": 2
    },
    {
      "sampler": 0,
      "source": 3
    },
    {
      "sampler": 0,
      "source": 4
    },
    {
      "sampler": 0,
      "source": 5
    },
    {
      "sampler": 0,
      "source": 6
    },
    {
      "sampler": 0,
      "source": 7
    },
    {
      "sampler": 0,
      "source": 8
    },
    {
      "sampler": 0,
      "source": 9
    },
    {
      "sampler": 0,
      "source": 10
    }
  ]
}

